<svg width="65" height="64" viewBox="0 0 65 64" fill="none" xmlns="http://www.w3.org/2000/svg">
<path d="M27.4414 32.8895C27.4414 32.0628 27.4414 31.6495 27.5323 31.3105C27.7787 30.3903 28.4977 29.6713 29.4179 29.4249C29.7569 29.334 30.1702 29.334 30.9969 29.334H34.5526C35.3793 29.334 35.7926 29.334 36.1315 29.4249C37.0518 29.6713 37.7707 30.3903 38.0171 31.3105C38.1081 31.6495 38.1081 32.0628 38.1081 32.8895V34.6673C38.1081 37.6129 35.7203 40.0007 32.7747 40.0007C29.8291 40.0007 27.4414 37.6129 27.4414 34.6673V32.8895Z" stroke="#123283" stroke-width="5.5" stroke-linecap="round" stroke-linejoin="round"/>
<path d="M37.579 34.6667C38.4099 34.4253 39.3523 34.1347 40.4547 33.7947L51.5779 30.3643C55.5369 29.1435 57.4745 27.016 57.8958 23.3327C58.0843 21.6853 58.1787 20.8615 58.0462 20.1873C57.6678 18.263 56.0518 16.7028 53.8982 16.1824C53.1435 16 52.1961 16 50.3011 16H15.2483C13.3534 16 12.406 16 11.6513 16.1824C9.4977 16.7028 7.88167 18.263 7.50335 20.1873C7.37076 20.8615 7.46503 21.6853 7.65356 23.3327C8.07511 27.016 10.0127 29.1435 13.9716 30.3643L25.0946 33.7947C26.197 34.1347 27.1396 34.4253 27.9705 34.6667" stroke="#123283" stroke-width="5.5"/>
<path d="M10.0077 29.334L9.48432 35.1268C8.54626 45.5105 8.07722 50.7023 11.0863 54.0183C14.0955 57.334 19.2761 57.334 29.6374 57.334H35.9094C46.2708 57.334 51.4513 57.334 54.4606 54.0183C57.4697 50.7023 57.0006 45.5105 56.0625 35.1268L55.5393 29.334" stroke="#123283" stroke-width="5.5" stroke-linecap="round" stroke-linejoin="round"/>
<path d="M42.1081 14.666L41.9019 13.9596C40.8753 10.4395 40.3619 8.67943 39.1398 7.67274C37.9177 6.66602 36.2945 6.66602 33.0475 6.66602H32.5019C29.255 6.66602 27.6318 6.66602 26.4096 7.67274C25.1875 8.67943 24.6742 10.4395 23.6475 13.9596L23.4414 14.666" stroke="#123283" stroke-width="5.5"/>
</svg>
