<svg width="65" height="64" viewBox="0 0 65 64" fill="none" xmlns="http://www.w3.org/2000/svg">
<path d="M32.9154 57.3327C20.9731 57.3327 15.002 57.3327 11.292 53.6228C7.58203 49.9127 7.58203 43.9415 7.58203 31.9993C7.58203 20.0571 7.58203 14.086 11.292 10.376C15.002 6.66602 20.9731 6.66602 32.9154 6.66602C44.8575 6.66602 50.8287 6.66602 54.5388 10.376C58.2487 14.086 58.2487 20.0571 58.2487 31.9993" stroke="#123283" stroke-width="4.5" stroke-linecap="round" stroke-linejoin="round"/>
<path d="M7.58203 24H58.2487" stroke="#123283" stroke-width="4.5"/>
<path d="M7.58203 34.666H44.9154" stroke="#123283" stroke-width="4.5" stroke-linecap="round"/>
<path d="M7.58203 45.334H32.9154" stroke="#123283" stroke-width="4.5"/>
<path d="M32.9141 57.3333V24" stroke="#123283" stroke-width="4.5" stroke-linecap="round"/>
<path d="M50.5191 52.4879L56.4642 46.5428C57.2948 45.7124 57.71 45.2972 57.9319 44.8492C58.3543 43.997 58.3543 42.9964 57.9319 42.1441C57.71 41.6961 57.2948 41.2809 56.4642 40.4505C55.6338 39.6199 55.2186 39.2047 54.7706 38.9828C53.9183 38.5604 52.9178 38.5604 52.0655 38.9828C51.6175 39.2047 51.2023 39.6199 50.3719 40.4505L43.89 46.9324C41.9895 48.8329 41.0391 49.7831 40.4519 50.9476C40.2706 51.3071 40.1162 51.6799 39.9903 52.0626C39.582 53.3009 39.582 54.6449 39.582 57.3327L41.3287 57.0831C43.9858 56.7036 45.3143 56.5137 46.4932 55.9241C47.6724 55.3348 48.6212 54.3858 50.5191 52.4879Z" stroke="#123283" stroke-width="4.5" stroke-linecap="square" stroke-linejoin="round"/>
</svg>
