<svg width="64" height="65" viewBox="0 0 64 65" fill="none" xmlns="http://www.w3.org/2000/svg">
<path d="M43.8419 57.4275L45.3144 55.5869C46.6083 53.9696 49.356 54.1 50.4491 55.8301C51.7637 57.912 55.0112 57.4981 55.9117 55.5832C55.9587 55.4837 55.8413 55.7328 55.9416 54.8712C56.0416 54.0096 56 53.8128 55.9165 53.4195L50.7883 29.2043C49.4995 23.1185 48.8549 20.0756 46.6381 18.2878C44.4216 16.5 41.2928 16.5 35.0357 16.5H28.9643C22.7071 16.5 19.5785 16.5 17.3618 18.2878C15.145 20.0756 14.5006 23.1185 13.2117 29.2043L8.08347 53.4195C8.00011 53.8128 7.95843 54.0096 8.05851 54.8712C8.15856 55.7328 8.04144 55.4837 8.08827 55.5832C8.98891 57.4981 12.2362 57.912 13.5511 55.8301C14.6441 54.1 17.3917 53.9696 18.6856 55.5869L20.1582 57.4275C22.0137 59.7464 25.8885 59.7464 27.744 57.4275L27.9755 57.1379C29.9443 54.6773 34.0557 54.6773 36.0245 57.1379L36.256 57.4275C38.1115 59.7464 41.9864 59.7464 43.8419 57.4275Z" stroke="#123283" stroke-width="5.5" stroke-linejoin="round"/>
<path d="M6.621 25.834C5.06018 24.2126 5.35402 22.1245 5.35402 16.9053C5.35402 11.6863 5.35402 9.0767 6.91484 7.45534C8.47567 5.83398 10.9878 5.83398 16.012 5.83398H47.9859C53.0099 5.83398 55.5222 5.83398 57.083 7.45534C58.6438 9.0767 58.6438 11.6863 58.6438 16.9053C58.6438 22.1245 58.9358 24.2126 57.375 25.834" stroke="#123283" stroke-width="5.5" stroke-linecap="round"/>
<path d="M32 27.166H24" stroke="#123283" stroke-width="5.5" stroke-linecap="round" stroke-linejoin="round"/>
<path d="M37.332 37.834H21.332" stroke="#123283" stroke-width="5.5" stroke-linecap="round" stroke-linejoin="round"/>
</svg>
